<?xml version="1.0" encoding="iso-8859-1"?>
<!-- Generator: Adobe Illustrator 16.0.0, SVG Export Plug-In . SVG Version: 6.00 Build 0)  -->
<!DOCTYPE svg PUBLIC "-//W3C//DTD SVG 1.1//EN" "http://www.w3.org/Graphics/SVG/1.1/DTD/svg11.dtd">
<svg version="1.1" id="&#x30EC;&#x30A4;&#x30E4;&#x30FC;_1"
	 xmlns="http://www.w3.org/2000/svg" xmlns:xlink="http://www.w3.org/1999/xlink" x="0px" y="0px" width="197.018px"
	 height="197.877px" viewBox="0 0 197.018 197.877" style="enable-background:new 0 0 197.018 197.877;" xml:space="preserve">
<g>
	<defs>
		<rect id="SVGID_1_" width="197.018" height="197.877"/>
	</defs>
	<clipPath id="SVGID_2_">
		<use xlink:href="#SVGID_1_"  style="overflow:visible;"/>
	</clipPath>
	<path style="clip-path:url(#SVGID_2_);fill:#004098;" d="M128.455,150.533c-35.906,22.236-78.517,18.72-94.945-7.838
		c-6.42-10.359-8.118-22.962-4.95-36.448c4.675-19.868,19.734-39.324,40.268-52.033c20.543-12.719,44.658-17.512,64.531-12.838
		c13.5,3.169,24.006,10.317,30.425,20.676C180.221,88.61,164.371,128.3,128.455,150.533 M135.095,34.02
		c-22.104-5.197-47.698-0.174-70.234,13.771c-22.535,13.954-38.45,34.625-43.648,56.72c-3.637,15.488-1.616,30.062,5.877,42.16
		c18.624,30.094,65.891,34.703,105.332,10.281c39.461-24.423,56.413-68.778,37.781-98.872
		C162.709,45.981,150.578,37.666,135.095,34.02"/>
	<path style="clip-path:url(#SVGID_2_);fill:#004098;" d="M40.985,133.236c15.611,0,90.437-27.982,88.82-49.379
		c-1.523-20.267-44.777,0.235-58.68,7.118l1.726-16.567c9.477-7.581,70.05-33.858,79.995-2.732
		C165.096,109.935,73.595,135.743,40.985,133.236"/>
	<path style="clip-path:url(#SVGID_2_);fill:#8D93C8;" d="M69.599,99.387c8.174,0,14.813-6.631,14.813-14.817
		c0-8.178-6.639-14.808-14.813-14.808c-8.173,0-14.812,6.63-14.812,14.808C54.787,92.756,61.426,99.387,69.599,99.387"/>
	<path style="clip-path:url(#SVGID_2_);fill:#8D93C8;" d="M80.702,157.911c0.019-13.95-0.027-39.768-0.027-40.168
		c0-6.056-4.923-10.974-10.974-10.974c-6.053,0-10.974,4.918-10.974,10.974v36.959C65.458,156.934,72.905,158.009,80.702,157.911"/>
	<path style="clip-path:url(#SVGID_2_);fill:#8D93C8;" d="M11.92,85.608c-0.221,0.527-0.45,1.01-0.735,1.758
		c-0.9,2.364-1.001,3.609-0.955,4.826l-2.736-0.124c-0.202-1.855,0.064-3.872,1.542-7.526L11.92,85.608z M13.187,92.1
		c0.229,0.417,0.634,1.083,1.24,1.317c0.983,0.373,1.496-0.573,2.13-2.258c0.46-1.162,0.882-2.334,1.166-3.541l2.902,1.07
		c-0.146,0.441-0.284,0.923-0.789,2.236c-0.955,2.493-1.562,3.793-2.553,4.615c-0.468,0.395-1.69,1.166-3.269,0.565
		c-1.267-0.492-2.205-1.511-2.847-2.636L13.187,92.1z M1.249,91.388c0.937,0.492,1.12,0.583,1.873,0.983l1.451-3.775l2.755,1.051
		L5.749,93.78c4.72,2.604,6.998,4.202,10.505,6.824l-1.983,2.373c-2.663-2.533-7.374-5.385-9.523-6.588l-0.817,2.167l-2.765-1.051
		l0.946-2.48C1.24,94.593,0.955,94.46,0,94.042L1.249,91.388z"/>
	<path style="clip-path:url(#SVGID_2_);fill:#8D93C8;" d="M25.648,75.978c-0.322-0.22-0.661-0.44-1.176-0.757
		c-1.919-1.162-4.049-2.223-6.134-2.714c-1.561-0.376-3.187-0.565-4.628-0.156l-0.285-2.829c2.489-0.436,4.491-0.643,8.725,1.107
		c2.102,0.873,3.783,1.873,4.958,2.603L25.648,75.978z M8.917,76.768c1.589,1.295,3.214,2.534,4.968,3.591
		c1.167,0.706,2.865,1.648,4.188,2.034c0.542,0.161,1.506,0.408,1.864-0.189c0.266-0.44,0.009-0.968-0.275-1.454
		c-0.34-0.584-0.983-1.443-1.773-2.348l2.499-1.193c1.239,1.396,3.985,4.675,2.561,7.03c-0.983,1.616-2.792,1.501-4.114,1.286
		c-1.837-0.327-4.665-1.677-6.695-2.907c-1.726-1.047-3.691-2.466-5.004-3.426L8.917,76.768z"/>
	<path style="clip-path:url(#SVGID_2_);fill:#8D93C8;" d="M24.768,52.827c0.588,0.422,1.093,0.79,2.856,2.263l1.625-2.015
		l2.231,1.896l-1.615,2.016c2.966,2.654,4.683,4.256,2.654,6.663c-0.157,0.175-0.754,0.895-1.865,1.736l-2.176-1.8
		c0.882-0.69,1.551-1.41,1.551-1.41c0.588-0.699,0.029-1.263-1.956-2.989l-3.195,3.944l3.297,2.847
		c2.314,1.956,2.47,2.084,5.005-0.905c1.129-1.336,2.378-2.815,3.25-4.142l2.351,2.002c-0.605,0.859-1.726,2.182-2.626,3.246
		c-2.149,2.54-3.71,4.39-5.914,4.106c-0.817-0.102-1.625-0.358-3.627-2.062l-3.481-2.944l-1.625,2.026l-2.251-1.883l1.644-2.034
		l-2.663-2.264l1.809-2.149l2.6,2.223l3.168-3.908c-1.654-1.327-2.168-1.698-2.866-2.195L24.768,52.827z"/>
	<path style="clip-path:url(#SVGID_2_);fill:#8D93C8;" d="M39.699,57.171c1.34-1.129,3.205-2.791,4.408-4.417
		c0.725-1.015,2.507-3.54-0.028-6.419c-0.771-0.877-1.524-1.272-2.213-1.409c-0.854-0.166-1.764-0.047-2.93,0.968
		c-0.973,0.854-2.47,2.815-3.544,4.409c-1.562,2.332-1.745,2.593-1.947,2.905l-2.764-2.153c0.679-0.813,1.139-1.4,2.286-2.888
		c2.342-3.063,3.288-4.017,4.188-4.817c2.727-2.401,6.456-2.134,9.202,0.983c2.663,3.036,2.359,6.199,1.505,7.98
		c-1.147,2.461-2.975,4.431-5.638,6.75L39.699,57.171z"/>
	<path style="clip-path:url(#SVGID_2_);fill:#8D93C8;" d="M55.98,39.034c-0.027,1.36,0.432,2.094,0.57,2.309
		c0.752,1.144,2.039,0.551,3.452-0.38c1.048-0.703,2.416-1.672,3.343-2.507l1.809,2.653c-0.413,0.341-1.138,0.965-2.608,1.938
		c-2.424,1.612-5.739,3.618-7.943,0.281c-0.79-1.171-1.157-2.568-1.23-3.945L55.98,39.034z M56.771,29.038l1.727,2.618l-7.641,5.055
		l-1.717-2.613L56.771,29.038z M47.092,34.19c1.349,2.888,2.893,5.656,4.656,8.316c0.854,1.303,2.479,3.659,4.343,5.615l-2.314,1.85
		c-1.57-1.694-2.947-3.582-4.197-5.482c-1.882-2.838-3.535-5.827-5.114-8.848L47.092,34.19z"/>
	<path style="clip-path:url(#SVGID_2_);fill:#8D93C8;" d="M62.382,24.396c1.303,2.961,4.114,8.903,4.353,9.362
		c1.12,2.291,2.13,3.246,4.205,2.218c3.49-1.718,2.646-5.217,1.846-7.705l3.004-0.014c0.303,1.048,1.101,3.789,0.284,6.382
		c-0.505,1.575-1.405,2.926-3.747,4.083c-4.794,2.369-6.74-0.73-8.54-4.353c-0.671-1.364-3.582-7.42-4.188-8.641L62.382,24.396z"/>
	<path style="clip-path:url(#SVGID_2_);fill:#8D93C8;" d="M84.175,28.438c-0.378,0.004-0.819-0.01-1.388,0.188
		c-0.643,0.22-1.68,0.826-1.331,1.818c0.358,1.052,1.634,0.693,2.002,0.565c1.432-0.491,1.175-1.263,1.01-1.727L84.175,28.438z
		 M80.62,18.183l-0.514-1.52l2.691-0.927l0.532,1.515l5.087-1.749l0.892,2.622l-5.088,1.754l0.477,1.382l4.721-1.626l0.872,2.544
		l-4.72,1.63l0.661,1.91c2.204,0.202,4.573,1.02,5.905,1.653l-0.79,3.288c-0.762-0.454-2.488-1.346-4.013-1.759l0.083,0.349
		c0.202,0.827,0.339,1.387-0.156,2.251c-0.386,0.656-0.983,1.409-2.645,1.983c-2.966,1.024-4.996-0.024-5.693-2.062
		c-0.781-2.272,0.596-4.289,3.324-5.235c0.559-0.188,0.761-0.22,1.056-0.234l-0.414-1.217l-5.675,1.947l-0.881-2.544l5.675-1.956
		l-0.478-1.381l-6.014,2.075l-0.9-2.626L80.62,18.183z"/>
	<path style="clip-path:url(#SVGID_2_);fill:#8D93C8;" d="M100.813,20.58c-0.072-0.285-0.395-1.354-1.533-1.129
		c-0.285,0.051-1.423,0.409-1.14,1.947c0.12,0.638,0.588,1.657,1.736,1.437c0.845-0.156,1.203-0.85,1.047-1.708L100.813,20.58z
		 M98.857,11.503l2.884-0.551l0.349,1.79l4.601-0.881l0.552,2.861l-4.619,0.881l0.808,4.183c0.229,0.597,0.598,1.497,0.817,2.618
		c0.551,2.924-0.643,4.522-2.085,5.565c-1.12,0.835-2.543,1.451-4.509,1.846l-1.376-2.558c0.67-0.124,2.478-0.492,3.627-1.051
		c1.395-0.712,1.497-1.36,1.589-1.883c-0.268,0.298-0.607,0.684-1.534,0.859c-2.26,0.431-3.967-1.259-4.372-3.339
		c-0.312-1.712,0.359-4.182,3.123-4.706c0.542-0.101,0.991-0.032,1.359,0.019l-0.211-1.029l-8.073,1.542l-0.541-2.861l7.999-1.524
		L98.857,11.503z"/>
	<path style="clip-path:url(#SVGID_2_);fill:#004098;" d="M125.488,1.961c-0.458,0.005-0.816,0.634-0.816,1.378
		c0.018,0.772,0.405,1.391,0.863,1.387c0.459-0.005,0.817-0.639,0.817-1.41C126.335,2.577,125.958,1.953,125.488,1.961
		 M125.553,6.682c-1.12,0.014-2.021-1.461-2.056-3.329c-0.02-1.846,0.854-3.343,1.975-3.353c1.12-0.013,2.038,1.465,2.056,3.302
		C127.547,5.175,126.674,6.672,125.553,6.682 M122.927,3.238c0.111,3.536,1.506,4.408,2.884,4.394
		c-0.44,7.195-2.039,16.599-11.323,19.886l-1.404-4.499c7.281-1.837,9.165-7.894,9.65-15.089l-10.992,0.134l-0.055-4.697
		L122.927,3.238z"/>
	<path style="clip-path:url(#SVGID_2_);fill:#004098;" d="M144.094,12.03c-2.176,9.698-5.572,16.103-14.72,15.746l-0.129-4.504
		c6.171,0.55,9.055-1.892,10.79-7.448l-11.194-1.833l0.707-4.334L144.094,12.03z M144.113,4.689L143.406,9L131.32,7.026l0.707-4.317
		L144.113,4.689z"/>
	<path style="clip-path:url(#SVGID_2_);fill:#004098;" d="M150.605,32.987l-2.811-1.08l4.325-11.322
		c-3.095,1.336-5.546,1.772-7.144,2.016l-0.037-4.307c2.984-0.226,6.125-1.291,9.229-2.898c3.427-1.777,6.099-4.04,8.201-5.905
		l1.341,3.655c-2.396,2.015-4.436,3.527-7.586,5.377L150.605,32.987z"/>
	<path style="clip-path:url(#SVGID_2_);fill:#004098;" d="M179.561,25.228c1.212-2.494,1.589-3.357,1.965-4.455l1.515,0.432
		c-0.661,1.851-1.497,3.517-1.937,4.404L179.561,25.228z M177.319,24.245c0.56-0.992,1.58-3.095,2.067-4.436l1.515,0.455
		c-0.258,0.79-1.056,2.842-1.919,4.376L177.319,24.245z M178.303,20.581c-0.79,1.799-0.946,2.172-1.921,3.884l0.304,0.06
		c-3.076,4.922-5.702,11.268-6.538,16.112l-4.132,1.295c1.258-6.075,4.03-12.187,10.285-22.196L178.303,20.581z M156.52,31.155
		c2.938-1.616,5.527-4.004,7.714-6.392c3.554-3.893,5.95-7.185,7.209-8.912l2.048,2.003c-7.999,10.399-12.076,14.862-17.072,17.599
		L156.52,31.155z"/>
	<path style="clip-path:url(#SVGID_2_);fill:#004098;" d="M171.782,40.509c4.196,3.82,8.017,5.766,20.038-0.928l0.046,3.439
		c-12.884,6.8-18.339,5.588-23.546,1.332L171.782,40.509z M178.88,40.278c0.139-2.098-0.101-4.265-0.624-6.276l3.71-1.745
		c0.505,1.378,1.021,3.88,0.9,6.172L178.88,40.278z M185.41,36.958c0.064-2.278-0.331-4.353-0.919-6.29l3.711-1.714
		c0.661,1.649,1.184,3.982,1.203,6.209L185.41,36.958z"/>
	<polygon style="clip-path:url(#SVGID_2_);fill:#004098;" points="197.019,63.011 192.436,64.926 186.365,50.425 190.947,48.511 	
		"/>
	<path style="clip-path:url(#SVGID_2_);fill:#004098;" d="M46.596,182.72h0.376c2.59,0,3.27-1.79,3.334-3.136h2.176v18.049h-2.663
		v-12.424h-3.223V182.72z"/>
	<path style="clip-path:url(#SVGID_2_);fill:#004098;" d="M69.123,182.49c-1.314,1.897-4.656,7.282-4.987,15.144h-2.773
		c0.303-7.296,3.719-13.09,4.867-14.739h-6.778l0.046-3.164h9.625V182.49z"/>
	<path style="clip-path:url(#SVGID_2_);fill:#004098;" d="M73.108,188.603c0,6.331,1.507,9.274,4.693,9.274
		c3.204,0,4.701-2.943,4.701-9.274s-1.497-9.248-4.701-9.248C74.615,179.354,73.108,182.271,73.108,188.603 M75.854,188.603
		c0-4.66,0.422-6.41,1.947-6.41c1.543,0,1.956,1.75,1.956,6.41c0,4.646-0.413,6.433-1.956,6.433
		C76.276,195.035,75.854,193.248,75.854,188.603"/>
	<path style="clip-path:url(#SVGID_2_);fill:#004098;" d="M86.755,188.603c0,6.331,1.515,9.274,4.71,9.274
		c3.187,0,4.702-2.943,4.702-9.274s-1.515-9.248-4.702-9.248C88.27,179.354,86.755,182.271,86.755,188.603 M89.509,188.603
		c0-4.66,0.423-6.41,1.956-6.41c1.525,0,1.957,1.75,1.957,6.41c0,4.646-0.432,6.433-1.957,6.433
		C89.932,195.035,89.509,193.248,89.509,188.603"/>
	<path style="clip-path:url(#SVGID_2_);fill:#004098;" d="M100.419,188.603c0,6.331,1.506,9.274,4.692,9.274
		c3.196,0,4.712-2.943,4.712-9.274s-1.516-9.248-4.712-9.248C101.925,179.354,100.419,182.271,100.419,188.603 M103.165,188.603
		c0-4.66,0.422-6.41,1.946-6.41c1.544,0,1.966,1.75,1.966,6.41c0,4.646-0.422,6.433-1.966,6.433
		C103.587,195.035,103.165,193.248,103.165,188.603"/>
	<path style="clip-path:url(#SVGID_2_);fill:#004098;" d="M116.894,186.518c0.497-0.454,1.102-0.992,2.425-0.992
		c1.817,0,4.114,1.677,4.114,5.84c0,2.48-0.946,6.512-4.933,6.512c-2.13,0-4.288-1.686-4.426-5.336h2.682
		c0.119,1.479,0.698,2.484,1.883,2.484c1.285,0,2.038-1.465,2.038-3.402c0-1.606-0.577-3.246-2.002-3.246
		c-0.357,0-1.268,0.023-1.781,1.301l-2.405-0.144l0.946-9.968h7.465v3.016h-5.546L116.894,186.518z"/>
	<path style="clip-path:url(#SVGID_2_);fill:#004098;" d="M134.434,192.165c0,1.244-0.542,2.847-1.956,2.847
		c-1.23,0-1.983-1.143-1.983-2.874c0-1.956,0.955-2.801,1.929-2.801C133.92,189.337,134.434,190.889,134.434,192.165
		 M137.188,192.009c0-2.336-0.733-3.494-2.036-4.367c1.092-0.766,1.568-2.102,1.568-3.668c0-2.516-1.488-4.743-4.314-4.743
		c-2.407,0-4.243,1.868-4.243,4.973c0,1.699,0.56,2.852,1.643,3.567c-2.075,1.286-2.075,3.678-2.075,4.597
		c0,2.466,1.212,5.51,4.729,5.51C136.078,197.877,137.188,194.305,137.188,192.009 M132.478,186.623
		c-1.167,0-1.772-1.193-1.772-2.273c0-1.335,0.644-2.259,1.864-2.259c0.882,0,1.599,0.878,1.599,2.259
		C134.168,185.664,133.552,186.623,132.478,186.623"/>
	<path style="clip-path:url(#SVGID_2_);fill:#004098;" d="M148.081,192.165c0,1.244-0.543,2.847-1.948,2.847
		c-1.239,0-1.982-1.143-1.982-2.874c0-1.956,0.945-2.801,1.928-2.801C147.575,189.337,148.081,190.889,148.081,192.165
		 M150.844,192.009c0-2.336-0.726-3.494-2.038-4.367c1.092-0.766,1.579-2.102,1.579-3.668c0-2.516-1.506-4.743-4.335-4.743
		c-2.387,0-4.242,1.868-4.242,4.973c0,1.699,0.579,2.852,1.645,3.567c-2.067,1.286-2.067,3.678-2.067,4.597
		c0,2.466,1.204,5.51,4.73,5.51C149.732,197.877,150.844,194.305,150.844,192.009 M146.133,186.623
		c-1.157,0-1.763-1.193-1.763-2.273c0-1.335,0.634-2.259,1.865-2.259c0.862,0,1.577,0.878,1.577,2.259
		C147.812,185.664,147.198,186.623,146.133,186.623"/>
</g>
</svg>
